<svg width="330" height="326" viewBox="0 0 330 326" fill="none" xmlns="http://www.w3.org/2000/svg">
<circle cx="163" cy="163" r="163" fill="#FBF1D0"/>
<g style="mix-blend-mode:multiply" opacity="0.4">
<path d="M246.384 107.697C241.949 95.2202 235.235 83.5389 226.491 73.2875L247.545 36.175L184.893 3.28233e-08L163.84 37.1124C150.641 34.6946 137.264 34.7751 124.355 37.2364L103.04 0.305204L40.6549 36.9682L61.9694 73.8994C57.7582 78.9052 53.8896 84.3118 50.5272 90.2377C47.1744 96.1479 44.5124 102.251 42.3586 108.465L0 108.629L0.265397 181.468L42.6336 181.307C47.0595 193.799 53.7682 205.456 62.5187 215.714L41.4651 252.824L104.116 289L125.169 251.888C138.36 254.301 151.736 254.24 164.639 251.754L185.961 288.692L248.347 252.03L227.031 215.117C231.242 210.09 235.127 204.674 238.48 198.763C241.842 192.837 244.495 186.727 246.657 180.52L289 180.367L288.735 107.528L246.384 107.697ZM207.568 180.913C187.633 216.053 143.236 228.236 108.405 208.124C73.5746 188.013 61.4993 143.222 81.4337 108.083C101.368 72.9438 145.766 60.7609 180.596 80.872C215.426 100.983 227.503 145.774 207.568 180.913Z" transform="translate(18 19)" fill="#56CCF2"/>
</g>
<path d="M56.4661 121.913C56.4661 120.184 56.5692 118.481 56.7238 116.804C32.7559 109.812 15.0248 93.9955 15.0248 75.5989C15.0248 72.0382 15.1279 65.8716 15.3083 65.304C20.7719 78.8499 41.2349 89.635 65.1254 93.4794L77.1609 74.2314C79.7642 70.0773 82.9857 66.3619 86.7739 63.1625C90.408 60.0921 94.557 57.4603 99.1444 55.3704C104.634 52.8676 110.613 51.1389 117.056 50.1842C116.386 49.2554 115.974 48.1201 115.974 46.8816C115.974 43.7854 118.551 41.2053 121.644 41.2053C124.736 41.2053 127.313 43.7854 127.313 46.8816C127.313 47.7589 127.107 48.6103 126.747 49.3586C127.546 49.3328 128.319 49.3328 129.117 49.3328C141.694 49.3328 154.889 51.9904 167.75 57.0217C167.569 25.5695 130.071 1.10237e-07 83.8877 1.10237e-07C37.601 1.10237e-07 0.0257719 25.7501 0.0257719 57.3055L0 82.4105C0 107.851 24.4576 129.37 58.193 136.749C57.0331 131.717 56.4403 126.764 56.4661 121.913ZM111.463 16.7195C114.556 16.7195 117.133 19.2996 117.133 22.3958C117.133 25.492 114.556 28.0722 111.463 28.0722C108.371 28.0722 105.794 25.492 105.794 22.3958C105.794 19.2996 108.345 16.7195 111.463 16.7195ZM89.2995 36.0707C92.3922 36.0707 94.9694 38.6509 94.9694 41.7471C94.9694 44.8433 92.3922 47.4235 89.2995 47.4235C86.2069 47.4235 83.6297 44.8433 83.6297 41.7471C83.6297 38.6509 86.2069 36.0707 89.2995 36.0707ZM68.2696 22.9893C71.3623 22.9893 73.9394 25.5694 73.9394 28.6656C73.9394 31.7618 71.3623 34.342 68.2696 34.342C65.177 34.342 62.5998 31.7618 62.5998 28.6656C62.5998 25.5694 65.177 22.9893 68.2696 22.9893ZM55.2032 49.1522C58.2959 49.1522 60.8731 51.7323 60.8731 54.8285C60.8731 57.9247 58.2959 60.5049 55.2032 60.5049C52.1106 60.5049 49.5334 57.9247 49.5334 54.8285C49.5334 51.7323 52.1106 49.1522 55.2032 49.1522ZM39.302 33.7744C42.3946 33.7744 44.9718 36.3545 44.9718 39.4507C44.9718 42.5469 42.3946 45.1271 39.302 45.1271C36.2093 45.1271 33.6321 42.5469 33.6321 39.4507C33.6321 36.3803 36.2093 33.7744 39.302 33.7744Z" transform="translate(47 58)" fill="#219653"/>
<path d="M120.971 17.3387C115.275 13.7523 109.451 10.7593 103.6 8.28233C90.4308 2.73497 77.1583 3.65356e-06 64.9681 3.65356e-06C45.2526 3.65356e-06 28.398 7.17287 19.5324 21.2864L9.40407 37.464L6.20835 42.5727C2.60027 48.3523 0.615835 54.8027 0.126168 61.6402C-0.337727 67.9358 0.486979 74.541 2.44565 81.1978C8.21856 100.859 23.991 121.087 46.928 135.51C65.5098 147.173 85.4571 152.952 103.085 152.952C122.672 152.952 139.372 145.831 148.186 131.769C148.315 131.563 161.098 111.154 161.562 110.431C178.313 83.6748 160.17 41.9535 120.971 17.3387ZM120.533 77.9726C120.533 81.0688 117.956 83.649 114.863 83.649C111.77 83.649 109.193 81.0688 109.193 77.9726C109.193 74.8764 111.77 72.2963 114.863 72.2963C117.956 72.2963 120.533 74.8764 120.533 77.9726ZM113.136 36.4577C116.229 36.4577 118.806 39.0379 118.806 42.1341C118.806 45.2303 116.229 47.8105 113.136 47.8105C110.043 47.8105 107.466 45.2303 107.466 42.1341C107.466 39.0379 110.043 36.4577 113.136 36.4577ZM88.7299 63.7559C88.7299 66.8521 86.1527 69.4323 83.06 69.4323C80.9207 69.4323 79.0136 68.1938 78.0345 66.3877C77.6222 65.5876 77.3644 64.6845 77.3644 63.7559C77.3644 60.6597 79.9416 58.0795 83.0343 58.0795C84.503 58.0795 85.8429 58.6472 86.8483 59.6016C88.0082 60.6336 88.7299 62.1046 88.7299 63.7559ZM96.6674 40.4312C96.6674 43.5274 94.0902 46.1076 90.9975 46.1076C87.9049 46.1076 85.3277 43.5274 85.3277 40.4312C85.3277 37.335 87.9049 34.7548 90.9975 34.7548C94.0902 34.7548 96.6674 37.335 96.6674 40.4312ZM69.4009 19.9705C71.7462 19.9705 73.8079 21.467 74.6584 23.5311C74.9419 24.2022 75.0963 24.8986 75.0963 25.6727C75.0963 28.7689 72.5191 31.349 69.4264 31.349C67.4935 31.349 65.7926 30.343 64.7617 28.8465C64.1174 27.9435 63.7566 26.8337 63.7566 25.6471C63.7311 22.5507 66.3083 19.9705 69.4009 19.9705ZM139.166 118.042C125.971 139.122 87.8023 138.968 56.9273 119.565C41.3353 109.76 29.3255 96.1625 22.9856 82.3845C20.0734 76.037 18.3467 69.664 18.0116 63.575C17.6508 56.7376 19.0425 50.2872 22.4957 44.7656C23.8103 42.6757 25.8461 39.5279 27.1089 37.6702C27.6501 36.8703 28.0624 36.3027 28.2171 36.1997C28.1398 36.6642 28.0624 37.1286 28.0109 37.6188C27.1862 44.9462 29.8149 53.6159 34.9693 62.3884C38.2681 68.0387 42.6236 73.7151 47.7522 79.1595C54.2467 86.0227 62.0301 92.4473 70.5604 97.8141C97.0279 114.43 129.965 120.158 144.784 109.425C144.784 109.399 141.073 115.024 139.166 118.042ZM143.83 68.297C143.83 71.3932 141.253 73.9734 138.16 73.9734C135.068 73.9734 132.49 71.3932 132.49 68.297C132.49 65.2008 135.068 62.6206 138.16 62.6206C141.253 62.6206 143.83 65.2008 143.83 68.297Z" transform="translate(111.201 115.047)" fill="#2D9CDB"/>
<path d="M9.29688 16.0703H4.16016L3.18359 19H0.0683594L5.36133 4.78125H8.07617L13.3984 19H10.2832L9.29688 16.0703ZM4.95117 13.6973H8.50586L6.71875 8.375L4.95117 13.6973ZM23.0996 15.2695C23.0996 14.7161 22.9043 14.293 22.5137 14C22.123 13.7005 21.4199 13.388 20.4043 13.0625C19.3887 12.7305 18.5846 12.4049 17.9922 12.0859C16.3776 11.2135 15.5703 10.0384 15.5703 8.56055C15.5703 7.79232 15.7852 7.10872 16.2148 6.50977C16.651 5.9043 17.2728 5.43229 18.0801 5.09375C18.8939 4.75521 19.8053 4.58594 20.8145 4.58594C21.8301 4.58594 22.735 4.77148 23.5293 5.14258C24.3236 5.50716 24.9388 6.02474 25.375 6.69531C25.8177 7.36589 26.0391 8.1276 26.0391 8.98047H23.1094C23.1094 8.32943 22.9043 7.82487 22.4941 7.4668C22.084 7.10221 21.5078 6.91992 20.7656 6.91992C20.0495 6.91992 19.4928 7.07292 19.0957 7.37891C18.6986 7.67839 18.5 8.07552 18.5 8.57031C18.5 9.03255 18.7311 9.41992 19.1934 9.73242C19.6621 10.0449 20.349 10.3379 21.2539 10.6113C22.9206 11.1126 24.1348 11.7344 24.8965 12.4766C25.6582 13.2188 26.0391 14.1432 26.0391 15.25C26.0391 16.4805 25.5736 17.4473 24.6426 18.1504C23.7116 18.847 22.4583 19.1953 20.8828 19.1953C19.7891 19.1953 18.793 18.9967 17.8945 18.5996C16.9961 18.196 16.3092 17.6458 15.834 16.9492C15.3652 16.2526 15.1309 15.4453 15.1309 14.5273H18.0703C18.0703 16.0964 19.0078 16.8809 20.8828 16.8809C21.5794 16.8809 22.123 16.7409 22.5137 16.4609C22.9043 16.1745 23.0996 15.7773 23.0996 15.2695ZM29.0312 19V4.78125H33.4062C34.6562 4.78125 35.7728 5.06445 36.7559 5.63086C37.7454 6.19076 38.5169 6.99154 39.0703 8.0332C39.6237 9.06836 39.9004 10.2467 39.9004 11.5684V12.2227C39.9004 13.5443 39.627 14.7194 39.0801 15.748C38.5397 16.7767 37.7747 17.5742 36.7852 18.1406C35.7956 18.707 34.679 18.9935 33.4355 19H29.0312ZM31.9609 7.1543V16.6465H33.377C34.5228 16.6465 35.3984 16.2721 36.0039 15.5234C36.6094 14.7747 36.9186 13.7038 36.9316 12.3105V11.5586C36.9316 10.1133 36.6322 9.01953 36.0332 8.27734C35.4342 7.52865 34.5586 7.1543 33.4062 7.1543H31.9609Z" transform="translate(64 267)" fill="#2F80ED"/>
<path d="M54.2012 14.2637C54.0905 15.7936 53.5241 16.998 52.502 17.877C51.4863 18.7559 50.1452 19.1953 48.4785 19.1953C46.6556 19.1953 45.2201 18.5833 44.1719 17.3594C43.1302 16.1289 42.6094 14.4427 42.6094 12.3008V11.4316C42.6094 10.0645 42.8503 8.86003 43.332 7.81836C43.8138 6.77669 44.5007 5.97917 45.3926 5.42578C46.291 4.86589 47.3327 4.58594 48.5176 4.58594C50.1582 4.58594 51.4798 5.02539 52.4824 5.9043C53.485 6.7832 54.0645 8.01693 54.2207 9.60547H51.291C51.2194 8.6875 50.9622 8.02344 50.5195 7.61328C50.0833 7.19661 49.416 6.98828 48.5176 6.98828C47.541 6.98828 46.8086 7.33984 46.3203 8.04297C45.8385 8.73958 45.5911 9.82357 45.5781 11.2949V12.3691C45.5781 13.9056 45.8092 15.0286 46.2715 15.7383C46.7402 16.4479 47.4759 16.8027 48.4785 16.8027C49.3835 16.8027 50.0573 16.5977 50.5 16.1875C50.9492 15.7708 51.2064 15.1296 51.2715 14.2637H54.2012ZM56.5 13.6191C56.5 12.571 56.7018 11.6367 57.1055 10.8164C57.5091 9.99609 58.0885 9.36133 58.8438 8.91211C59.6055 8.46289 60.4876 8.23828 61.4902 8.23828C62.916 8.23828 64.0781 8.67448 64.9766 9.54688C65.8815 10.4193 66.3861 11.6042 66.4902 13.1016L66.5098 13.8242C66.5098 15.4453 66.0573 16.7474 65.1523 17.7305C64.2474 18.707 63.0332 19.1953 61.5098 19.1953C59.9863 19.1953 58.7689 18.707 57.8574 17.7305C56.9525 16.7539 56.5 15.4258 56.5 13.7461V13.6191ZM59.3223 13.8242C59.3223 14.8268 59.5111 15.5951 59.8887 16.1289C60.2663 16.6562 60.8066 16.9199 61.5098 16.9199C62.1934 16.9199 62.7272 16.6595 63.1113 16.1387C63.4954 15.6113 63.6875 14.7715 63.6875 13.6191C63.6875 12.6361 63.4954 11.8743 63.1113 11.334C62.7272 10.7936 62.1868 10.5234 61.4902 10.5234C60.8001 10.5234 60.2663 10.7936 59.8887 11.334C59.5111 11.8678 59.3223 12.6979 59.3223 13.8242ZM68.8086 13.6191C68.8086 12.571 69.0104 11.6367 69.4141 10.8164C69.8177 9.99609 70.3971 9.36133 71.1523 8.91211C71.9141 8.46289 72.7962 8.23828 73.7988 8.23828C75.2246 8.23828 76.3867 8.67448 77.2852 9.54688C78.1901 10.4193 78.6947 11.6042 78.7988 13.1016L78.8184 13.8242C78.8184 15.4453 78.3659 16.7474 77.4609 17.7305C76.556 18.707 75.3418 19.1953 73.8184 19.1953C72.2949 19.1953 71.0775 18.707 70.166 17.7305C69.2611 16.7539 68.8086 15.4258 68.8086 13.7461V13.6191ZM71.6309 13.8242C71.6309 14.8268 71.8197 15.5951 72.1973 16.1289C72.5749 16.6562 73.1152 16.9199 73.8184 16.9199C74.502 16.9199 75.0358 16.6595 75.4199 16.1387C75.804 15.6113 75.9961 14.7715 75.9961 13.6191C75.9961 12.6361 75.804 11.8743 75.4199 11.334C75.0358 10.7936 74.4954 10.5234 73.7988 10.5234C73.1087 10.5234 72.5749 10.7936 72.1973 11.334C71.8197 11.8678 71.6309 12.6979 71.6309 13.8242ZM85.3945 14.7617L84.3789 15.7773V19H81.5566V4H84.3789V12.3105L84.9258 11.6074L87.6309 8.43359H91.0195L87.2012 12.8379L91.3516 19H88.1094L85.3945 14.7617ZM96.2188 19H93.3867V8.43359H96.2188V19ZM93.2207 5.69922C93.2207 5.27604 93.3607 4.92773 93.6406 4.6543C93.9271 4.38086 94.3145 4.24414 94.8027 4.24414C95.2845 4.24414 95.6686 4.38086 95.9551 4.6543C96.2415 4.92773 96.3848 5.27604 96.3848 5.69922C96.3848 6.12891 96.2383 6.48047 95.9453 6.75391C95.6589 7.02734 95.278 7.16406 94.8027 7.16406C94.3275 7.16406 93.9434 7.02734 93.6504 6.75391C93.3639 6.48047 93.2207 6.12891 93.2207 5.69922ZM104.416 19.1953C102.867 19.1953 101.604 18.7201 100.627 17.7695C99.6569 16.819 99.1719 15.5527 99.1719 13.9707V13.6973C99.1719 12.6361 99.377 11.6888 99.7871 10.8555C100.197 10.0156 100.777 9.37109 101.525 8.92188C102.281 8.46615 103.14 8.23828 104.104 8.23828C105.549 8.23828 106.685 8.69401 107.512 9.60547C108.345 10.5169 108.762 11.8092 108.762 13.4824V14.6348H102.033C102.124 15.3249 102.398 15.8783 102.854 16.2949C103.316 16.7116 103.898 16.9199 104.602 16.9199C105.689 16.9199 106.538 16.526 107.15 15.7383L108.537 17.291C108.114 17.89 107.541 18.3587 106.818 18.6973C106.096 19.0293 105.295 19.1953 104.416 19.1953ZM104.094 10.5234C103.534 10.5234 103.078 10.7122 102.727 11.0898C102.382 11.4674 102.16 12.0078 102.062 12.7109H105.988V12.4863C105.975 11.8613 105.806 11.3796 105.48 11.041C105.155 10.696 104.693 10.5234 104.094 10.5234ZM128.701 14.2637C128.59 15.7936 128.024 16.998 127.002 17.877C125.986 18.7559 124.645 19.1953 122.979 19.1953C121.156 19.1953 119.72 18.5833 118.672 17.3594C117.63 16.1289 117.109 14.4427 117.109 12.3008V11.4316C117.109 10.0645 117.35 8.86003 117.832 7.81836C118.314 6.77669 119.001 5.97917 119.893 5.42578C120.791 4.86589 121.833 4.58594 123.018 4.58594C124.658 4.58594 125.98 5.02539 126.982 5.9043C127.985 6.7832 128.564 8.01693 128.721 9.60547H125.791C125.719 8.6875 125.462 8.02344 125.02 7.61328C124.583 7.19661 123.916 6.98828 123.018 6.98828C122.041 6.98828 121.309 7.33984 120.82 8.04297C120.339 8.73958 120.091 9.82357 120.078 11.2949V12.3691C120.078 13.9056 120.309 15.0286 120.771 15.7383C121.24 16.4479 121.976 16.8027 122.979 16.8027C123.883 16.8027 124.557 16.5977 125 16.1875C125.449 15.7708 125.706 15.1296 125.771 14.2637H128.701ZM131 13.6191C131 12.571 131.202 11.6367 131.605 10.8164C132.009 9.99609 132.589 9.36133 133.344 8.91211C134.105 8.46289 134.988 8.23828 135.99 8.23828C137.416 8.23828 138.578 8.67448 139.477 9.54688C140.382 10.4193 140.886 11.6042 140.99 13.1016L141.01 13.8242C141.01 15.4453 140.557 16.7474 139.652 17.7305C138.747 18.707 137.533 19.1953 136.01 19.1953C134.486 19.1953 133.269 18.707 132.357 17.7305C131.452 16.7539 131 15.4258 131 13.7461V13.6191ZM133.822 13.8242C133.822 14.8268 134.011 15.5951 134.389 16.1289C134.766 16.6562 135.307 16.9199 136.01 16.9199C136.693 16.9199 137.227 16.6595 137.611 16.1387C137.995 15.6113 138.188 14.7715 138.188 13.6191C138.188 12.6361 137.995 11.8743 137.611 11.334C137.227 10.7936 136.687 10.5234 135.99 10.5234C135.3 10.5234 134.766 10.7936 134.389 11.334C134.011 11.8678 133.822 12.6979 133.822 13.8242ZM146.346 8.43359L146.434 9.6543C147.189 8.71029 148.201 8.23828 149.471 8.23828C150.59 8.23828 151.424 8.56706 151.971 9.22461C152.518 9.88216 152.798 10.8652 152.811 12.1738V19H149.988V12.2422C149.988 11.6432 149.858 11.2103 149.598 10.9434C149.337 10.6699 148.904 10.5332 148.299 10.5332C147.505 10.5332 146.909 10.8717 146.512 11.5488V19H143.689V8.43359H146.346ZM161.682 16.0801C161.682 15.735 161.509 15.4648 161.164 15.2695C160.826 15.0677 160.279 14.8887 159.523 14.7324C157.01 14.2051 155.754 13.1374 155.754 11.5293C155.754 10.5918 156.141 9.81055 156.916 9.18555C157.697 8.55404 158.716 8.23828 159.973 8.23828C161.314 8.23828 162.385 8.55404 163.186 9.18555C163.993 9.81706 164.396 10.6374 164.396 11.6465H161.574C161.574 11.2428 161.444 10.9108 161.184 10.6504C160.923 10.3835 160.516 10.25 159.963 10.25C159.488 10.25 159.12 10.3574 158.859 10.5723C158.599 10.7871 158.469 11.0605 158.469 11.3926C158.469 11.7051 158.615 11.959 158.908 12.1543C159.208 12.3431 159.709 12.5091 160.412 12.6523C161.115 12.7891 161.708 12.9453 162.189 13.1211C163.68 13.668 164.426 14.6152 164.426 15.9629C164.426 16.9264 164.012 17.7077 163.186 18.3066C162.359 18.8991 161.291 19.1953 159.982 19.1953C159.097 19.1953 158.309 19.0391 157.619 18.7266C156.936 18.4076 156.398 17.9746 156.008 17.4277C155.617 16.8743 155.422 16.2786 155.422 15.6406H158.098C158.124 16.1419 158.309 16.526 158.654 16.793C158.999 17.0599 159.462 17.1934 160.041 17.1934C160.581 17.1934 160.988 17.0924 161.262 16.8906C161.542 16.6823 161.682 16.4121 161.682 16.0801ZM172.115 19.1953C170.566 19.1953 169.303 18.7201 168.326 17.7695C167.356 16.819 166.871 15.5527 166.871 13.9707V13.6973C166.871 12.6361 167.076 11.6888 167.486 10.8555C167.896 10.0156 168.476 9.37109 169.225 8.92188C169.98 8.46615 170.839 8.23828 171.803 8.23828C173.248 8.23828 174.384 8.69401 175.211 9.60547C176.044 10.5169 176.461 11.8092 176.461 13.4824V14.6348H169.732C169.824 15.3249 170.097 15.8783 170.553 16.2949C171.015 16.7116 171.598 16.9199 172.301 16.9199C173.388 16.9199 174.238 16.526 174.85 15.7383L176.236 17.291C175.813 17.89 175.24 18.3587 174.518 18.6973C173.795 19.0293 172.994 19.1953 172.115 19.1953ZM171.793 10.5234C171.233 10.5234 170.777 10.7122 170.426 11.0898C170.081 11.4674 169.859 12.0078 169.762 12.7109H173.688V12.4863C173.674 11.8613 173.505 11.3796 173.18 11.041C172.854 10.696 172.392 10.5234 171.793 10.5234ZM181.67 8.43359L181.758 9.6543C182.513 8.71029 183.525 8.23828 184.795 8.23828C185.915 8.23828 186.748 8.56706 187.295 9.22461C187.842 9.88216 188.122 10.8652 188.135 12.1738V19H185.312V12.2422C185.312 11.6432 185.182 11.2103 184.922 10.9434C184.661 10.6699 184.229 10.5332 183.623 10.5332C182.829 10.5332 182.233 10.8717 181.836 11.5488V19H179.014V8.43359H181.67ZM194.662 5.83594V8.43359H196.469V10.5039H194.662V15.7773C194.662 16.168 194.737 16.4479 194.887 16.6172C195.036 16.7865 195.323 16.8711 195.746 16.8711C196.059 16.8711 196.335 16.8483 196.576 16.8027V18.9414C196.023 19.1107 195.453 19.1953 194.867 19.1953C192.888 19.1953 191.879 18.196 191.84 16.1973V10.5039H190.297V8.43359H191.84V5.83594H194.662Z" transform="translate(64 267)" fill="#333333"/>
</svg>
